<?xml version="1.0" standalone="no"?>
<!DOCTYPE svg PUBLIC "-//W3C//DTD SVG 20010904//EN"
 "http://www.w3.org/TR/2001/REC-SVG-20010904/DTD/svg10.dtd">
<svg version="1.0" xmlns="http://www.w3.org/2000/svg"
 width="240.000000pt" height="240.000000pt" viewBox="0 0 240.000000 240.000000"
 preserveAspectRatio="xMidYMid meet">
<metadata>
Created by potrace 1.10, written by Peter Selinger 2001-2011
</metadata>
<g transform="translate(0.000000,240.000000) scale(0.100000,-0.100000)"
fill="#20124d" stroke="none">
<path d="M1069 2371 c-188 -54 -224 -107 -249 -376 -7 -77 -16 -125 -25 -135
-23 -25 -18 -53 15 -95 17 -21 30 -46 30 -55 0 -10 9 -28 19 -42 11 -13 24
-42 30 -64 6 -23 25 -60 41 -83 29 -39 31 -47 28 -118 -3 -74 -4 -77 -30 -84
-15 -4 -40 -16 -55 -26 -15 -10 -66 -36 -113 -58 -47 -21 -126 -58 -176 -81
-49 -23 -106 -49 -125 -57 -18 -8 -61 -41 -94 -73 -52 -51 -67 -74 -103 -160
-22 -55 -52 -140 -66 -188 -30 -101 -32 -93 55 -207 168 -221 432 -385 713
-443 68 -15 236 -23 225 -11 -3 2 -50 9 -104 16 -128 14 -304 68 -430 131 -55
28 -102 52 -105 55 -4 4 -6 30 -10 153 -1 32 -2 33 -9 10 -4 -14 -6 -49 -3
-77 2 -29 1 -53 -2 -53 -26 0 -134 94 -214 185 -29 33 -59 67 -66 75 -21 24
-40 63 -40 85 -2 39 62 239 86 271 5 7 11 21 13 32 13 68 157 192 224 192 10
0 21 6 24 13 3 8 31 24 64 37 32 13 65 29 74 37 8 7 20 13 25 13 5 0 31 11 58
25 27 14 51 23 54 20 2 -2 11 2 19 10 23 23 29 18 43 -31 20 -69 82 -156 127
-179 50 -24 53 -25 153 -31 66 -5 93 -2 120 10 l35 17 -35 -8 c-92 -18 -250 5
-295 45 -33 28 -83 114 -93 160 -11 47 2 72 38 72 26 0 40 30 40 84 0 24 5 46
11 48 16 5 4 39 -37 98 -35 51 -49 86 -80 205 -17 63 -19 67 -25 40 l-6 -30
-11 28 c-18 42 -15 57 11 58 14 1 10 4 -13 9 -35 7 -35 7 -10 17 18 8 27 7 33
-1 4 -6 4 3 0 19 -12 46 -4 210 13 283 23 93 76 143 191 178 105 33 132 34
243 10 141 -30 150 -40 209 -201 27 -72 33 -106 34 -171 1 -74 2 -80 21 -80
25 1 32 -28 16 -70 l-12 -29 -13 25 c-14 24 -14 21 -14 -35 1 -36 -5 -72 -14
-89 -9 -16 -19 -48 -22 -70 -4 -23 -13 -48 -20 -56 -19 -21 -55 -120 -44 -120
5 0 9 -22 9 -48 0 -54 28 -92 68 -92 11 0 24 -4 27 -10 3 -5 14 -10 24 -10 10
0 32 -7 47 -15 16 -8 36 -15 45 -15 8 0 34 -9 57 -20 22 -11 47 -20 55 -20 7
0 17 -4 23 -9 5 -5 32 -18 59 -29 109 -43 221 -102 246 -129 35 -37 52 -72
100 -205 54 -153 54 -176 -3 -263 -57 -88 -94 -135 -165 -207 -46 -47 -59 -56
-74 -48 -14 8 -21 5 -33 -12 -9 -12 -16 -29 -16 -38 -1 -43 -333 -210 -418
-210 -11 0 -23 -4 -26 -9 -3 -5 -45 -14 -93 -21 -49 -7 -106 -15 -128 -20 -34
-7 -29 -8 38 -9 92 -1 197 19 315 61 108 38 166 66 265 131 73 48 77 53 71 80
-5 22 -3 28 7 25 8 -3 13 -13 13 -22 -1 -12 7 -9 35 13 87 70 194 201 255 312
l36 65 -14 55 c-8 30 -33 106 -56 171 -56 158 -79 183 -234 257 -130 63 -369
155 -448 174 l-48 12 0 82 c0 62 5 90 19 115 11 18 25 53 31 78 7 25 18 59 26
75 8 17 18 48 24 71 5 22 19 49 30 59 27 24 25 51 -4 78 -18 17 -25 37 -30 87
-8 73 -68 256 -100 303 -40 59 -106 81 -271 92 -49 3 -89 -1 -136 -14z"/>
<path d="M1330 1959 c0 -5 5 -7 10 -4 6 3 10 8 10 11 0 2 -4 4 -10 4 -5 0 -10
-5 -10 -11z"/>
<path d="M1480 1946 c0 -2 9 -6 20 -9 11 -3 18 -1 14 4 -5 9 -34 13 -34 5z"/>
<path d="M1360 1899 c-12 -9 -11 -10 7 -6 12 3 24 0 26 -6 2 -6 11 -8 22 -4
21 9 19 12 -15 20 -14 3 -32 1 -40 -4z"/>
<path d="M1297 1882 c-10 -10 -17 -23 -17 -28 0 -5 5 -1 11 9 6 10 20 22 32
27 15 6 17 9 6 9 -9 1 -23 -7 -32 -17z"/>
<path d="M1048 1883 c6 -2 18 -2 25 0 6 3 1 5 -13 5 -14 0 -19 -2 -12 -5z"/>
<path d="M975 1870 c-7 -11 38 -24 57 -17 8 4 7 6 -4 6 -10 1 -18 6 -18 11 0
13 -27 13 -35 0z"/>
<path d="M970 1800 c0 -5 5 -10 10 -10 6 0 10 5 10 10 0 6 -4 10 -10 10 -5 0
-10 -4 -10 -10z"/>
<path d="M995 1770 c-3 -5 -1 -10 4 -10 6 0 11 5 11 10 0 6 -2 10 -4 10 -3 0
-8 -4 -11 -10z"/>
<path d="M1135 1753 c-33 -8 -42 -23 -13 -23 14 0 31 7 38 15 13 15 10 16 -25
8z"/>
<path d="M1242 1744 c10 -10 69 -13 63 -4 -4 6 -20 10 -37 10 -17 0 -29 -3
-26 -6z"/>
<path d="M1044 1726 c-10 -8 -17 -17 -14 -19 3 -3 16 3 30 13 29 22 14 27 -16
6z"/>
<path d="M1100 1691 c0 -6 4 -11 9 -11 5 0 22 -5 38 -12 15 -6 36 -10 46 -9
10 1 29 -5 42 -13 13 -9 39 -16 56 -16 50 0 20 17 -33 19 -27 1 -22 20 7 27
14 3 25 11 25 16 0 6 -10 7 -27 2 -35 -10 -88 -10 -130 1 -23 5 -33 4 -33 -4z"/>
<path d="M1380 1696 c0 -3 14 -18 30 -34 36 -37 40 -28 5 11 -24 25 -35 33
-35 23z"/>
<path d="M1005 1663 c-14 -15 -25 -37 -25 -48 1 -20 1 -20 12 0 6 11 22 32 36
48 14 15 21 27 14 27 -6 0 -23 -12 -37 -27z"/>
<path d="M1123 1646 c-44 -15 -50 -24 -14 -22 29 2 60 21 50 30 -2 2 -18 -2
-36 -8z"/>
<path d="M920 1633 c0 -5 7 -18 15 -29 15 -18 15 -18 13 5 -3 23 -28 44 -28
24z"/>
<path d="M1375 1630 c3 -5 8 -10 11 -10 2 0 4 5 4 10 0 6 -5 10 -11 10 -5 0
-7 -4 -4 -10z"/>
<path d="M1024 1610 c3 -14 6 -30 6 -37 0 -6 8 -9 19 -6 11 3 32 -4 48 -16 16
-12 52 -23 85 -27 49 -6 63 -3 110 21 64 32 93 53 86 60 -7 7 -58 -16 -58 -26
0 -5 -19 -17 -43 -28 -41 -19 -48 -19 -113 -5 -38 7 -71 14 -73 14 -3 0 -1 4
5 10 5 5 30 6 59 2 49 -8 132 2 148 18 5 4 -49 6 -120 4 -122 -3 -129 -2 -146
19 l-19 22 6 -25z"/>
<path d="M1166 1471 c-14 -5 -16 -10 -8 -15 7 -4 17 -4 22 -1 6 3 10 1 10 -5
0 -6 7 -13 15 -16 17 -7 46 19 37 32 -9 11 -51 14 -76 5z"/>
<path d="M1045 1390 c-3 -5 9 -17 27 -26 18 -9 41 -23 51 -32 9 -8 17 -12 17
-8 0 4 13 -1 30 -11 22 -13 33 -14 41 -6 9 9 1 14 -32 23 -24 7 -62 25 -85 41
-24 16 -45 25 -49 19z"/>
<path d="M1294 1338 l-19 -23 25 20 c14 11 27 21 29 22 2 2 0 3 -6 3 -5 0 -18
-10 -29 -22z"/>
<path d="M1468 1136 c-15 -18 -47 -47 -72 -63 -25 -17 -43 -33 -39 -36 7 -7
115 80 132 106 21 33 6 27 -21 -7z"/>
<path d="M441 924 c0 -11 3 -14 6 -6 3 7 2 16 -1 19 -3 4 -6 -2 -5 -13z"/>
<path d="M996 732 c-3 -5 -7 -30 -7 -56 -3 -58 -17 -60 -22 -3 l-4 42 -1 -42
c-3 -58 -20 -54 -24 5 -2 34 -7 47 -18 47 -11 0 -16 -13 -18 -47 -2 -27 -7
-48 -13 -48 -5 0 -7 11 -5 25 3 13 1 27 -3 29 -4 3 -8 -7 -9 -21 -3 -38 -12
-42 -12 -5 0 50 -15 37 -18 -16 -1 -26 1 -42 5 -37 7 10 83 17 83 8 0 -2 -10
-8 -22 -13 l-23 -9 22 0 c12 -1 27 7 32 17 7 11 10 13 11 3 0 -11 3 -11 15 -1
12 10 15 10 15 -1 0 -11 2 -11 10 1 5 8 10 39 10 68 0 31 4 52 11 52 6 0 9 -9
6 -20 -3 -11 -1 -20 5 -20 13 0 6 43 -9 47 -6 2 -14 0 -17 -5z m-66 -42 c0
-16 -4 -30 -10 -30 -5 0 -10 14 -10 30 0 17 5 30 10 30 6 0 10 -13 10 -30z m0
-50 c0 -5 -4 -10 -10 -10 -5 0 -10 5 -10 10 0 6 5 10 10 10 6 0 10 -4 10 -10z"/>
<path d="M1046 732 c-3 -5 6 -8 19 -6 14 1 25 -3 25 -9 0 -7 5 -6 10 3 9 13
11 13 21 0 9 -13 10 -13 6 0 -4 16 -72 26 -81 12z"/>
<path d="M1178 733 c7 -3 16 -2 19 1 4 3 -2 6 -13 5 -11 0 -14 -3 -6 -6z"/>
<path d="M1238 733 c7 -3 16 -2 19 1 4 3 -2 6 -13 5 -11 0 -14 -3 -6 -6z"/>
<path d="M1292 698 l1 -43 4 38 c6 57 20 44 20 -20 1 -32 -1 -50 -4 -40 -2 9
-9 15 -14 11 -5 -3 -7 -10 -4 -15 4 -5 1 -9 -4 -9 -6 0 -11 16 -11 35 0 19 -5
35 -11 35 -5 0 -8 -4 -4 -9 3 -5 -3 -12 -12 -14 -17 -4 -17 -5 0 -6 18 -1 25
-41 6 -41 -5 0 -8 4 -4 9 3 5 1 12 -5 16 -5 3 -10 -2 -11 -12 0 -16 -1 -16 -9
2 -9 20 -9 20 -10 0 -1 -20 -1 -20 -9 0 -6 14 -4 22 8 27 14 6 14 7 -1 7 -9 1
-19 7 -21 14 -3 6 -6 -6 -6 -27 -1 -22 -4 -36 -8 -33 -3 4 -6 21 -5 39 0 25
-2 29 -8 17 -5 -9 -8 -26 -5 -38 2 -11 0 -21 -6 -21 -5 0 -9 11 -9 25 0 14 -6
25 -12 25 -10 0 -10 2 0 9 10 6 8 10 -10 14 -35 10 -58 8 -58 -4 0 -5 5 -7 10
-4 6 4 10 -9 10 -31 l0 -38 -20 22 c-11 12 -21 34 -21 49 -2 24 -2 25 -6 6 -2
-13 -10 -23 -17 -23 -7 0 -13 -15 -13 -37 -1 -21 1 -32 4 -25 4 10 8 10 19 1
11 -9 14 -8 14 2 0 9 3 10 8 4 9 -13 42 -15 42 -3 0 7 4 7 13 1 6 -6 72 -10
145 -10 105 0 132 2 132 13 0 8 5 14 11 14 6 0 9 -6 6 -12 -3 -9 7 -13 32 -12
34 1 36 3 39 38 2 28 -1 38 -15 43 -10 4 -21 11 -25 17 -3 5 -4 -12 -2 -37 3
-28 0 -47 -6 -47 -5 0 -10 16 -10 35 0 19 -4 35 -9 35 -4 0 -7 -11 -6 -25 2
-14 -1 -25 -6 -25 -5 0 -9 16 -9 35 0 19 -4 35 -9 35 -5 0 -7 -22 -4 -50 3
-32 1 -50 -6 -50 -7 0 -11 23 -11 60 l0 59 58 4 c41 2 31 4 -35 5 l-93 2 2
-42z m56 -8 c-1 -22 -6 -40 -10 -40 -4 0 -8 18 -8 40 0 22 5 40 10 40 6 0 10
-17 8 -40z m-228 -10 c0 -5 -4 -10 -10 -10 -5 0 -10 5 -10 10 0 6 5 10 10 10
6 0 10 -4 10 -10z m346 -25 c1 -14 -2 -25 -7 -25 -5 0 -9 11 -9 25 0 33 15 33
16 0z m-426 -10 c0 -8 -4 -15 -10 -15 -5 0 -7 7 -4 15 4 8 8 15 10 15 2 0 4
-7 4 -15z m100 0 c0 -17 -2 -18 -24 -9 -23 9 -20 24 4 24 11 0 20 -7 20 -15z"/>
<path d="M1489 721 c-2 -6 -2 -33 -1 -60 4 -45 6 -49 33 -53 16 -3 34 -1 41 3
7 4 18 3 25 -2 16 -14 32 -3 45 29 16 43 19 70 8 77 -6 4 -10 -5 -10 -20 0
-25 -25 -85 -36 -85 -3 0 -3 9 1 19 3 10 7 33 10 50 2 17 6 35 10 41 3 5 1 10
-5 10 -13 0 -20 -16 -24 -56 -2 -16 -4 -33 -5 -39 -4 -25 -19 24 -17 57 0 20
-2 34 -6 32 -5 -3 -8 -14 -8 -25 0 -26 -18 -24 -22 3 -3 23 -33 37 -39 19z
m29 -57 c1 -26 -1 -45 -3 -43 -7 8 -23 88 -17 93 12 12 20 -7 20 -50z m31 -21
c0 -25 -1 -26 -9 -8 -12 27 -12 35 0 35 6 0 10 -12 9 -27z"/>
<path d="M820 694 c-6 -14 -10 -36 -10 -50 0 -39 -17 -28 -18 12 -2 61 -12 51
-12 -12 0 -35 4 -54 9 -46 4 7 14 12 21 10 9 -2 14 12 16 46 2 27 9 53 16 58
10 6 10 8 0 8 -7 0 -17 -12 -22 -26z"/>
<path d="M1221 704 c0 -11 3 -14 6 -6 3 7 2 16 -1 19 -3 4 -6 -2 -5 -13z"/>
<path d="M730 694 c-17 -9 -20 -14 -9 -14 11 0 20 -15 28 -45 12 -48 27 -63
17 -17 -15 65 -15 76 -3 84 21 13 -7 7 -33 -8z"/>
<path d="M1656 649 c-30 -50 -13 -50 23 0 14 20 16 28 7 28 -8 0 -21 -13 -30
-28z"/>
<path d="M683 662 c-13 -2 -23 -10 -23 -18 0 -8 -4 -14 -10 -14 -5 0 8 -18 30
-40 21 -22 35 -42 30 -45 -4 -3 -24 12 -45 33 -28 29 -36 33 -33 17 2 -11 14
-27 26 -36 17 -12 20 -19 12 -24 -6 -4 -17 -2 -23 4 -6 6 -20 11 -31 11 -17 0
-16 -3 9 -16 16 -8 40 -12 52 -9 19 4 23 1 23 -19 0 -40 -10 -56 -51 -76 -46
-24 -51 -32 -43 -64 l6 -26 31 35 c43 48 56 44 17 -5 -18 -23 -30 -43 -28 -45
3 -3 19 13 37 35 26 32 30 44 22 59 -8 14 -7 22 4 31 12 10 15 9 15 -9 0 -22
32 -61 50 -61 15 0 12 7 -14 33 -25 25 -43 85 -33 111 10 26 107 26 107 0 0
-8 -4 -14 -9 -14 -5 0 -12 -8 -14 -17 -4 -14 -5 -12 -6 5 0 12 -6 22 -12 22
-6 0 -9 -9 -6 -20 3 -10 0 -21 -6 -23 -6 -2 -7 -8 -4 -14 12 -19 45 -2 56 29
6 16 15 27 20 23 7 -3 7 -15 1 -30 -7 -18 -5 -25 6 -29 33 -13 41 -5 48 43 4
32 12 51 23 55 21 8 30 -1 15 -16 -20 -20 -14 -65 10 -82 30 -22 60 -20 86 4
25 24 28 56 8 79 -13 14 -5 16 88 19 l103 2 7 -37 c8 -54 7 -73 -4 -73 -5 0
-7 7 -4 15 4 8 1 15 -6 15 -6 0 -10 -11 -8 -27 2 -18 8 -27 17 -25 8 2 18 -3
22 -10 5 -7 9 19 9 63 0 75 1 77 24 75 23 -1 24 -3 20 -68 -1 -38 1 -68 7 -68
5 0 9 26 9 58 0 31 4 62 8 68 4 6 30 10 59 10 58 0 53 6 68 -93 4 -24 11 -43
16 -43 11 0 11 40 0 97 l-8 42 42 7 c24 3 69 3 101 0 85 -8 98 -10 112 -19 7
-5 12 -4 12 2 0 6 7 11 16 11 8 0 13 -3 10 -8 -2 -4 13 -7 35 -7 21 0 39 4 39
8 0 5 5 5 12 1 7 -4 8 -3 4 5 -5 7 -20 9 -42 5 -33 -6 -40 0 -35 29 1 4 -13 0
-30 -8 -45 -24 -47 -11 -2 19 22 16 31 26 21 26 -9 0 -31 -12 -48 -26 -17 -15
-34 -24 -37 -20 -4 3 -4 7 -2 9 39 27 75 66 65 70 -7 3 -28 -13 -46 -35 -22
-26 -40 -38 -51 -35 -10 3 -19 1 -21 -5 -2 -5 -153 -11 -378 -14 -206 -2 -405
-8 -443 -12 -73 -9 -74 -9 -110 50 -19 31 -21 38 -8 38 5 0 21 -19 35 -42 18
-31 25 -37 25 -23 0 37 -32 81 -56 77z m176 -119 c6 -10 11 -12 11 -5 0 17 20
15 20 -3 0 -8 -4 -15 -10 -15 -5 0 -10 -12 -11 -27 0 -25 -2 -23 -14 12 -7 22
-13 36 -14 32 -1 -5 -6 -5 -11 -2 -11 7 -4 25 10 25 5 0 14 -8 19 -17z m156
-9 c24 -24 15 -57 -18 -68 -34 -12 -61 1 -65 33 -7 46 49 69 83 35z m-363
-135 c-18 -18 -36 -29 -40 -25 -7 8 46 56 62 56 6 0 -5 -14 -22 -31z"/>
<path d="M949 524 c-27 -33 26 -71 56 -40 12 12 14 20 5 36 -13 24 -42 26 -61
4z m51 -19 c0 -19 -20 -29 -32 -17 -15 15 -2 43 17 36 8 -3 15 -12 15 -19z"/>
<path d="M427 523 c45 -56 73 -85 73 -77 0 11 -94 124 -103 124 -5 0 9 -21 30
-47z"/>
<path d="M490 539 c0 -5 5 -7 10 -4 6 3 10 8 10 11 0 2 -4 4 -10 4 -5 0 -10
-5 -10 -11z"/>
<path d="M1127 543 c-11 -10 -8 -113 3 -113 6 0 10 14 10 30 0 31 9 37 27 19
11 -11 53 7 53 23 0 12 -14 10 -27 -3 -15 -15 -67 16 -57 32 4 6 13 4 24 -6
15 -13 23 -14 39 -5 12 6 21 16 21 22 0 7 -5 6 -15 -2 -12 -10 -21 -10 -41 -1
-29 13 -29 13 -37 4z"/>
<path d="M1506 519 c-3 -17 -3 -36 1 -42 3 -5 6 -22 7 -36 1 -18 6 -26 19 -25
9 0 35 1 57 2 28 2 40 6 40 17 0 10 -10 15 -32 14 -31 -1 -31 -1 -8 -8 23 -7
22 -8 -13 -12 -23 -3 -42 0 -48 7 -8 9 -5 11 10 7 15 -4 21 -1 21 11 0 12 9
16 36 16 24 0 34 4 31 13 -2 6 -20 12 -40 12 -29 1 -37 -3 -37 -17 0 -10 -4
-18 -10 -18 -17 0 -12 67 6 74 25 10 54 7 54 -5 0 -6 -8 -8 -19 -4 -11 3 -22
2 -25 -3 -2 -4 10 -9 29 -10 36 -3 56 15 34 29 -8 5 -35 9 -60 9 -44 0 -47 -2
-53 -31z"/>
<path d="M1337 533 c-4 -3 -7 -31 -7 -60 0 -39 4 -53 13 -50 7 2 11 16 9 35
-2 18 1 32 7 32 6 0 11 -5 11 -11 0 -7 10 -9 25 -7 21 4 25 1 25 -18 0 -24 16
-41 28 -29 3 3 1 10 -7 14 -7 5 -12 14 -11 22 1 8 2 23 1 34 -1 15 -4 16 -13
7 -16 -16 -43 -15 -58 3 -14 17 -7 19 19 5 14 -7 23 -5 36 10 19 21 7 28 -13
8 -9 -9 -15 -9 -24 0 -13 13 -31 16 -41 5z"/>
<path d="M1870 529 c0 -5 5 -7 10 -4 6 3 10 8 10 11 0 2 -4 4 -10 4 -5 0 -10
-5 -10 -11z"/>
<path d="M1090 478 c0 -28 3 -48 7 -44 10 10 12 96 2 96 -5 0 -9 -23 -9 -52z"/>
<path d="M1690 520 c0 -5 5 -10 11 -10 5 0 7 5 4 10 -3 6 -8 10 -11 10 -2 0
-4 -4 -4 -10z"/>
<path d="M1750 521 c-44 -11 -35 -31 14 -31 26 0 46 -5 49 -12 3 -8 6 -6 6 5
1 13 -8 17 -36 18 l-38 1 40 13 c30 10 34 13 15 13 -14 0 -36 -3 -50 -7z"/>
<path d="M577 499 c-15 -11 -25 -25 -21 -30 3 -5 12 -2 20 6 17 17 69 21 59 5
-3 -5 -1 -10 4 -10 6 0 11 6 11 14 0 8 6 17 13 20 6 3 0 4 -15 1 -16 -3 -28
-1 -28 5 0 15 -12 12 -43 -11z"/>
<path d="M596 464 c-11 -8 -16 -14 -10 -14 13 0 39 18 34 24 -3 2 -14 -2 -24
-10z"/>
<path d="M660 471 c0 -5 -18 -16 -40 -25 -22 -9 -40 -20 -40 -25 0 -5 23 2 50
16 46 23 65 43 40 43 -5 0 -10 -4 -10 -9z"/>
<path d="M1690 470 c0 -9 14 -14 69 -25 31 -7 33 -6 20 7 -16 17 -89 31 -89
18z"/>
<path d="M520 426 c0 -9 5 -16 10 -16 6 0 10 4 10 9 0 6 -4 13 -10 16 -5 3
-10 -1 -10 -9z"/>
<path d="M1680 431 c0 -6 9 -11 20 -11 11 0 20 -4 20 -10 0 -5 5 -10 11 -10 5
0 7 5 4 10 -8 12 1 13 43 1 17 -5 32 -6 32 -1 0 4 -21 11 -47 14 -27 4 -56 9
-65 12 -10 3 -18 1 -18 -5z"/>
<path d="M1815 430 c3 -5 8 -10 11 -10 2 0 4 5 4 10 0 6 -5 10 -11 10 -5 0 -7
-4 -4 -10z"/>
<path d="M1288 403 c7 -3 16 -2 19 1 4 3 -2 6 -13 5 -11 0 -14 -3 -6 -6z"/>
<path d="M1320 401 c0 -7 202 -32 208 -26 6 5 -99 25 -155 29 -29 2 -53 0 -53
-3z"/>
<path d="M697 368 c-42 -57 -60 -88 -49 -88 5 0 26 27 45 60 40 66 41 78 4 28z"/>
<path d="M1598 393 c6 -2 18 -2 25 0 6 3 1 5 -13 5 -14 0 -19 -2 -12 -5z"/>
<path d="M1639 380 c-11 -15 -26 -20 -67 -22 -37 -1 -50 -4 -42 -12 12 -12 13
-36 1 -36 -5 0 -11 10 -14 22 -4 12 -9 19 -13 15 -4 -4 1 -20 12 -35 25 -33
32 -107 11 -99 -8 3 -20 0 -26 -6 -8 -8 -11 -8 -11 1 0 7 -7 12 -15 12 -9 0
-15 9 -15 25 0 16 -6 25 -15 25 -10 0 -15 10 -15 28 0 15 -4 33 -8 39 -4 7 -6
-17 -4 -52 3 -44 1 -65 -7 -65 -7 0 -11 21 -11 53 0 61 -14 91 -30 67 -5 -8
-10 -10 -10 -3 0 15 -37 5 -72 -19 -26 -18 -27 -18 -33 2 -3 11 -11 20 -17 20
-7 0 -6 -5 1 -14 8 -10 9 -16 1 -21 -5 -3 -14 5 -20 19 -5 14 -14 26 -19 26
-5 0 -17 3 -25 6 -12 5 -15 2 -10 -10 3 -8 9 -15 12 -14 21 2 32 -4 32 -17 0
-18 -16 -20 -23 -2 -3 6 -5 -6 -5 -28 0 -23 3 -30 5 -17 4 20 26 29 24 9 -1
-4 -1 -16 -1 -27 0 -14 -6 -19 -21 -17 -11 2 -25 10 -30 18 -7 11 -9 11 -9 1
0 -7 -4 -10 -10 -7 -5 3 -10 19 -10 36 0 16 5 29 10 29 6 0 10 -8 10 -17 0
-15 2 -16 10 -3 7 11 3 18 -13 27 -28 15 -31 11 -29 -37 3 -39 2 -40 -28 -40
-17 0 -29 4 -26 8 11 19 15 71 6 77 -6 4 -10 3 -9 -2 4 -25 -2 -63 -12 -63 -6
0 -8 9 -4 20 3 11 2 28 -4 37 -8 15 -10 11 -11 -20 0 -24 -4 -36 -10 -32 -6 4
-8 15 -5 25 3 10 1 21 -5 25 -6 4 -10 -6 -10 -24 0 -17 -4 -31 -10 -31 -5 0
-10 6 -10 13 0 9 -3 8 -9 -2 -7 -11 -10 -10 -15 6 -4 11 -4 28 0 37 3 9 1 16
-5 16 -6 0 -11 -13 -11 -30 0 -16 -4 -30 -9 -30 -12 0 -11 52 1 68 7 8 7 12 0
12 -5 0 -13 -8 -16 -17 -6 -14 -9 -15 -15 -4 -13 20 -24 -5 -17 -35 4 -14 2
-24 -4 -24 -5 0 -10 13 -10 29 0 17 -4 32 -9 36 -6 3 -7 -9 -4 -30 4 -23 2
-35 -6 -35 -6 0 -11 16 -11 38 0 27 -3 33 -10 22 -5 -8 -7 -25 -3 -37 3 -14 1
-23 -6 -23 -6 0 -11 15 -11 33 0 26 -4 33 -20 34 -16 1 -20 -4 -20 -28 0 -20
-5 -29 -16 -29 -11 0 -14 5 -10 16 14 38 19 67 9 61 -6 -4 -14 -22 -17 -41 -7
-38 2 -75 14 -56 10 17 31 3 23 -16 -4 -10 -15 -13 -42 -9 -35 5 -35 5 -6 -5
36 -12 120 -21 111 -12 -4 3 -16 7 -28 9 -28 4 -30 7 -22 27 8 21 24 21 24 -1
0 -15 2 -15 9 -4 8 12 12 12 25 2 11 -9 16 -10 16 -2 0 13 176 6 194 -8 17
-13 181 -33 308 -37 64 -2 123 -7 131 -10 8 -3 27 -3 43 0 16 2 39 5 52 5 19
1 21 4 13 19 -9 17 -18 57 -20 90 -1 6 -5 12 -10 12 -4 0 -6 -11 -3 -25 2 -15
0 -25 -7 -25 -6 0 -11 17 -11 40 0 38 1 39 20 28 12 -7 29 -38 38 -68 10 -30
23 -56 30 -57 7 -2 12 1 12 7 0 6 -4 10 -9 10 -8 0 -41 87 -41 109 0 6 5 11
10 11 6 0 10 -8 10 -18 0 -10 5 -23 12 -30 7 -7 9 -12 4 -12 -4 0 1 -13 11
-30 17 -29 55 -41 67 -21 4 5 -2 7 -12 4 -10 -2 -24 3 -32 12 -17 20 -7 30 17
16 19 -9 19 -8 -1 34 -20 42 -46 65 -31 28 4 -10 9 -24 13 -32 3 -9 0 -12 -8
-9 -22 7 -31 58 -14 75 12 13 18 8 45 -36 35 -56 61 -65 80 -28 6 12 8 19 4
15 -7 -6 -67 54 -60 61 2 2 17 -6 33 -18 32 -22 42 -26 42 -13 0 14 -66 43
-84 36 -15 -6 -13 -12 20 -45 21 -21 34 -42 30 -46 -8 -8 -72 62 -81 90 -8 22
-19 22 -36 -3z m-842 -80 c1 -10 -2 -22 -7 -25 -6 -4 -10 7 -10 26 0 34 12 33
17 -1z m533 -17 c0 -25 3 -44 6 -40 4 3 6 24 6 47 0 22 3 40 8 40 5 0 9 -24 9
-53 l-1 -53 -49 2 c-28 1 -52 4 -55 7 -3 3 -12 3 -20 0 -15 -6 -17 11 -4 42 8
19 8 19 18 -5 l11 -25 2 25 c1 24 2 23 9 -5 7 -29 8 -29 10 -5 1 14 2 31 1 38
-1 6 3 12 9 12 5 0 10 -16 10 -37 0 -20 3 -34 6 -30 4 3 6 24 6 47 0 22 3 40
9 40 5 0 9 -21 9 -47z m59 -8 c-1 -30 -5 -55 -10 -55 -5 0 -9 25 -9 55 0 30 4
55 10 55 5 0 9 -25 9 -55z m-479 13 c0 -18 -2 -20 -9 -8 -6 8 -7 18 -5 22 9
14 14 9 14 -14z m540 -48 c0 -11 -4 -20 -10 -20 -5 0 -10 9 -10 20 0 11 5 20
10 20 6 0 10 -9 10 -20z m120 5 c0 -8 0 -18 1 -22 0 -4 -4 -9 -10 -11 -6 -2
-11 8 -11 22 0 14 5 26 10 26 6 0 10 -7 10 -15z"/>
<path d="M1770 386 c0 -2 7 -7 16 -10 8 -3 12 -2 9 4 -6 10 -25 14 -25 6z"/>
<path d="M776 371 c-9 -13 -16 -12 117 -15 59 -1 107 2 107 6 0 5 -26 8 -57 8
-32 0 -81 3 -109 6 -33 4 -54 3 -58 -5z"/>
<path d="M711 331 c-23 -43 -28 -76 -10 -66 5 4 8 12 6 18 -3 7 4 27 15 45 11
18 18 36 15 38 -3 3 -15 -12 -26 -35z"/>
<path d="M1050 351 c0 -8 90 -3 99 5 2 2 -19 4 -47 4 -29 0 -52 -4 -52 -9z"/>
<path d="M1250 356 c0 -2 7 -6 15 -10 8 -3 15 -1 15 4 0 6 -7 10 -15 10 -8 0
-15 -2 -15 -4z"/>
<path d="M1436 345 c4 -8 7 -15 9 -15 2 0 5 7 9 15 3 9 0 15 -9 15 -9 0 -12
-6 -9 -15z"/>
<path d="M1474 310 c0 -27 5 -50 9 -50 4 0 7 22 5 50 -4 65 -16 65 -14 0z"/>
<path d="M977 333 c-11 -10 -8 -43 3 -43 6 0 10 11 10 25 0 26 -2 29 -13 18z"/>
<path d="M1093 285 c0 -22 2 -30 4 -17 2 12 2 30 0 40 -3 9 -5 -1 -4 -23z"/>
<path d="M1452 300 c0 -14 2 -19 5 -12 2 6 2 18 0 25 -3 6 -5 1 -5 -13z"/>
<path d="M1509 283 c0 -5 -2 -16 -4 -25 -2 -10 1 -20 6 -24 5 -3 9 9 9 25 0
17 -2 31 -5 31 -3 0 -5 -3 -6 -7z"/>
<path d="M850 210 c0 -6 7 -10 15 -10 8 0 15 2 15 4 0 2 -7 6 -15 10 -8 3 -15
1 -15 -4z"/>
</g>
</svg>
